<svg width="400" height="60" viewBox="0 0 400 60" fill="none" xmlns="http://www.w3.org/2000/svg">
    <style>
        .bar {
            transform-box: fill-box;
            transform-origin: bottom;
            animation: wave 1.5s ease-in-out infinite;
        }
        @keyframes wave {
            0%, 100% { transform: scaleY(0.3); }
            50% { transform: scaleY(1); }
        }
    </style>
    <rect class="bar" x="0" y="0" width="6" height="60" rx="3" fill="#7aa2f7" style="animation-delay: 0.87s; animation-duration: 1.13s" /><rect class="bar" x="10" y="0" width="6" height="60" rx="3" fill="#bb9af7" style="animation-delay: 0.12s; animation-duration: 1.36s" /><rect class="bar" x="20" y="0" width="6" height="60" rx="3" fill="#7dcfff" style="animation-delay: 0.81s; animation-duration: 0.98s" /><rect class="bar" x="30" y="0" width="6" height="60" rx="3" fill="#b4f9f8" style="animation-delay: 0.15s; animation-duration: 1.52s" /><rect class="bar" x="40" y="0" width="6" height="60" rx="3" fill="#b4f9f8" style="animation-delay: 0.35s; animation-duration: 0.97s" /><rect class="bar" x="50" y="0" width="6" height="60" rx="3" fill="#bb9af7" style="animation-delay: 1.06s; animation-duration: 1.60s" /><rect class="bar" x="60" y="0" width="6" height="60" rx="3" fill="#2ac3de" style="animation-delay: 0.14s; animation-duration: 1.62s" /><rect class="bar" x="70" y="0" width="6" height="60" rx="3" fill="#bb9af7" style="animation-delay: 0.26s; animation-duration: 1.19s" /><rect class="bar" x="80" y="0" width="6" height="60" rx="3" fill="#b4f9f8" style="animation-delay: 0.59s; animation-duration: 1.67s" /><rect class="bar" x="90" y="0" width="6" height="60" rx="3" fill="#bb9af7" style="animation-delay: 0.12s; animation-duration: 1.45s" /><rect class="bar" x="100" y="0" width="6" height="60" rx="3" fill="#7dcfff" style="animation-delay: 1.25s; animation-duration: 1.06s" /><rect class="bar" x="110" y="0" width="6" height="60" rx="3" fill="#b4f9f8" style="animation-delay: 1.17s; animation-duration: 1.53s" /><rect class="bar" x="120" y="0" width="6" height="60" rx="3" fill="#2ac3de" style="animation-delay: 0.95s; animation-duration: 1.57s" /><rect class="bar" x="130" y="0" width="6" height="60" rx="3" fill="#b4f9f8" style="animation-delay: 0.86s; animation-duration: 1.59s" /><rect class="bar" x="140" y="0" width="6" height="60" rx="3" fill="#2ac3de" style="animation-delay: 1.45s; animation-duration: 1.74s" /><rect class="bar" x="150" y="0" width="6" height="60" rx="3" fill="#bb9af7" style="animation-delay: 0.22s; animation-duration: 1.38s" /><rect class="bar" x="160" y="0" width="6" height="60" rx="3" fill="#2ac3de" style="animation-delay: 1.48s; animation-duration: 0.81s" /><rect class="bar" x="170" y="0" width="6" height="60" rx="3" fill="#bb9af7" style="animation-delay: 0.66s; animation-duration: 1.17s" /><rect class="bar" x="180" y="0" width="6" height="60" rx="3" fill="#bb9af7" style="animation-delay: 0.80s; animation-duration: 1.30s" /><rect class="bar" x="190" y="0" width="6" height="60" rx="3" fill="#7aa2f7" style="animation-delay: 0.44s; animation-duration: 0.93s" /><rect class="bar" x="200" y="0" width="6" height="60" rx="3" fill="#2ac3de" style="animation-delay: 0.46s; animation-duration: 1.67s" /><rect class="bar" x="210" y="0" width="6" height="60" rx="3" fill="#b4f9f8" style="animation-delay: 0.70s; animation-duration: 1.51s" /><rect class="bar" x="220" y="0" width="6" height="60" rx="3" fill="#7dcfff" style="animation-delay: 1.04s; animation-duration: 0.92s" /><rect class="bar" x="230" y="0" width="6" height="60" rx="3" fill="#2ac3de" style="animation-delay: 0.73s; animation-duration: 0.94s" /><rect class="bar" x="240" y="0" width="6" height="60" rx="3" fill="#bb9af7" style="animation-delay: 0.54s; animation-duration: 0.99s" /><rect class="bar" x="250" y="0" width="6" height="60" rx="3" fill="#2ac3de" style="animation-delay: 1.12s; animation-duration: 1.33s" /><rect class="bar" x="260" y="0" width="6" height="60" rx="3" fill="#2ac3de" style="animation-delay: 0.05s; animation-duration: 1.58s" /><rect class="bar" x="270" y="0" width="6" height="60" rx="3" fill="#7aa2f7" style="animation-delay: 0.74s; animation-duration: 1.74s" /><rect class="bar" x="280" y="0" width="6" height="60" rx="3" fill="#b4f9f8" style="animation-delay: 0.32s; animation-duration: 1.20s" /><rect class="bar" x="290" y="0" width="6" height="60" rx="3" fill="#bb9af7" style="animation-delay: 0.22s; animation-duration: 1.43s" /><rect class="bar" x="300" y="0" width="6" height="60" rx="3" fill="#7dcfff" style="animation-delay: 0.77s; animation-duration: 1.47s" /><rect class="bar" x="310" y="0" width="6" height="60" rx="3" fill="#2ac3de" style="animation-delay: 0.44s; animation-duration: 0.90s" /><rect class="bar" x="320" y="0" width="6" height="60" rx="3" fill="#2ac3de" style="animation-delay: 0.06s; animation-duration: 1.07s" /><rect class="bar" x="330" y="0" width="6" height="60" rx="3" fill="#b4f9f8" style="animation-delay: 0.24s; animation-duration: 1.70s" /><rect class="bar" x="340" y="0" width="6" height="60" rx="3" fill="#7dcfff" style="animation-delay: 0.17s; animation-duration: 1.55s" /><rect class="bar" x="350" y="0" width="6" height="60" rx="3" fill="#7aa2f7" style="animation-delay: 0.41s; animation-duration: 1.09s" /><rect class="bar" x="360" y="0" width="6" height="60" rx="3" fill="#bb9af7" style="animation-delay: 0.99s; animation-duration: 0.86s" /><rect class="bar" x="370" y="0" width="6" height="60" rx="3" fill="#7dcfff" style="animation-delay: 0.62s; animation-duration: 1.70s" /><rect class="bar" x="380" y="0" width="6" height="60" rx="3" fill="#bb9af7" style="animation-delay: 1.11s; animation-duration: 1.41s" /><rect class="bar" x="390" y="0" width="6" height="60" rx="3" fill="#b4f9f8" style="animation-delay: 0.55s; animation-duration: 1.18s" /></svg>