<svg width="400" height="60" viewBox="0 0 400 60" fill="none" xmlns="http://www.w3.org/2000/svg">
    <style>
        .bar {
            transform-box: fill-box;
            transform-origin: bottom;
            animation: wave 1.5s ease-in-out infinite;
        }
        @keyframes wave {
            0%, 100% { transform: scaleY(0.3); }
            50% { transform: scaleY(1); }
        }
    </style>
    <rect class="bar" x="0" y="0" width="6" height="60" rx="3" fill="#7dcfff" style="animation-delay: 0.96s; animation-duration: 1.68s" /><rect class="bar" x="10" y="0" width="6" height="60" rx="3" fill="#7dcfff" style="animation-delay: 1.23s; animation-duration: 0.93s" /><rect class="bar" x="20" y="0" width="6" height="60" rx="3" fill="#7aa2f7" style="animation-delay: 1.08s; animation-duration: 1.00s" /><rect class="bar" x="30" y="0" width="6" height="60" rx="3" fill="#7dcfff" style="animation-delay: 0.79s; animation-duration: 1.59s" /><rect class="bar" x="40" y="0" width="6" height="60" rx="3" fill="#2ac3de" style="animation-delay: 1.19s; animation-duration: 1.09s" /><rect class="bar" x="50" y="0" width="6" height="60" rx="3" fill="#bb9af7" style="animation-delay: 1.07s; animation-duration: 1.50s" /><rect class="bar" x="60" y="0" width="6" height="60" rx="3" fill="#bb9af7" style="animation-delay: 0.49s; animation-duration: 1.79s" /><rect class="bar" x="70" y="0" width="6" height="60" rx="3" fill="#b4f9f8" style="animation-delay: 0.63s; animation-duration: 1.26s" /><rect class="bar" x="80" y="0" width="6" height="60" rx="3" fill="#2ac3de" style="animation-delay: 1.04s; animation-duration: 1.25s" /><rect class="bar" x="90" y="0" width="6" height="60" rx="3" fill="#2ac3de" style="animation-delay: 0.46s; animation-duration: 1.03s" /><rect class="bar" x="100" y="0" width="6" height="60" rx="3" fill="#7dcfff" style="animation-delay: 0.02s; animation-duration: 1.34s" /><rect class="bar" x="110" y="0" width="6" height="60" rx="3" fill="#7aa2f7" style="animation-delay: 1.20s; animation-duration: 1.29s" /><rect class="bar" x="120" y="0" width="6" height="60" rx="3" fill="#7aa2f7" style="animation-delay: 1.28s; animation-duration: 1.38s" /><rect class="bar" x="130" y="0" width="6" height="60" rx="3" fill="#2ac3de" style="animation-delay: 0.55s; animation-duration: 1.17s" /><rect class="bar" x="140" y="0" width="6" height="60" rx="3" fill="#2ac3de" style="animation-delay: 1.20s; animation-duration: 0.81s" /><rect class="bar" x="150" y="0" width="6" height="60" rx="3" fill="#7aa2f7" style="animation-delay: 1.33s; animation-duration: 0.81s" /><rect class="bar" x="160" y="0" width="6" height="60" rx="3" fill="#7aa2f7" style="animation-delay: 0.21s; animation-duration: 1.30s" /><rect class="bar" x="170" y="0" width="6" height="60" rx="3" fill="#b4f9f8" style="animation-delay: 0.08s; animation-duration: 1.08s" /><rect class="bar" x="180" y="0" width="6" height="60" rx="3" fill="#b4f9f8" style="animation-delay: 0.53s; animation-duration: 1.52s" /><rect class="bar" x="190" y="0" width="6" height="60" rx="3" fill="#2ac3de" style="animation-delay: 0.94s; animation-duration: 1.08s" /><rect class="bar" x="200" y="0" width="6" height="60" rx="3" fill="#2ac3de" style="animation-delay: 1.33s; animation-duration: 1.37s" /><rect class="bar" x="210" y="0" width="6" height="60" rx="3" fill="#b4f9f8" style="animation-delay: 0.23s; animation-duration: 1.18s" /><rect class="bar" x="220" y="0" width="6" height="60" rx="3" fill="#b4f9f8" style="animation-delay: 1.09s; animation-duration: 1.75s" /><rect class="bar" x="230" y="0" width="6" height="60" rx="3" fill="#b4f9f8" style="animation-delay: 0.42s; animation-duration: 0.88s" /><rect class="bar" x="240" y="0" width="6" height="60" rx="3" fill="#2ac3de" style="animation-delay: 1.27s; animation-duration: 1.48s" /><rect class="bar" x="250" y="0" width="6" height="60" rx="3" fill="#b4f9f8" style="animation-delay: 0.56s; animation-duration: 1.40s" /><rect class="bar" x="260" y="0" width="6" height="60" rx="3" fill="#bb9af7" style="animation-delay: 1.16s; animation-duration: 1.06s" /><rect class="bar" x="270" y="0" width="6" height="60" rx="3" fill="#7aa2f7" style="animation-delay: 1.10s; animation-duration: 0.84s" /><rect class="bar" x="280" y="0" width="6" height="60" rx="3" fill="#7dcfff" style="animation-delay: 0.88s; animation-duration: 1.33s" /><rect class="bar" x="290" y="0" width="6" height="60" rx="3" fill="#7dcfff" style="animation-delay: 0.62s; animation-duration: 0.84s" /><rect class="bar" x="300" y="0" width="6" height="60" rx="3" fill="#7aa2f7" style="animation-delay: 0.19s; animation-duration: 1.76s" /><rect class="bar" x="310" y="0" width="6" height="60" rx="3" fill="#b4f9f8" style="animation-delay: 0.50s; animation-duration: 1.43s" /><rect class="bar" x="320" y="0" width="6" height="60" rx="3" fill="#7dcfff" style="animation-delay: 0.97s; animation-duration: 1.11s" /><rect class="bar" x="330" y="0" width="6" height="60" rx="3" fill="#bb9af7" style="animation-delay: 0.34s; animation-duration: 1.43s" /><rect class="bar" x="340" y="0" width="6" height="60" rx="3" fill="#bb9af7" style="animation-delay: 0.82s; animation-duration: 1.21s" /><rect class="bar" x="350" y="0" width="6" height="60" rx="3" fill="#bb9af7" style="animation-delay: 0.64s; animation-duration: 1.66s" /><rect class="bar" x="360" y="0" width="6" height="60" rx="3" fill="#7aa2f7" style="animation-delay: 0.81s; animation-duration: 0.81s" /><rect class="bar" x="370" y="0" width="6" height="60" rx="3" fill="#7aa2f7" style="animation-delay: 0.39s; animation-duration: 1.70s" /><rect class="bar" x="380" y="0" width="6" height="60" rx="3" fill="#2ac3de" style="animation-delay: 1.40s; animation-duration: 0.94s" /><rect class="bar" x="390" y="0" width="6" height="60" rx="3" fill="#7dcfff" style="animation-delay: 1.15s; animation-duration: 1.36s" /></svg>