<svg width="400" height="60" viewBox="0 0 400 60" fill="none" xmlns="http://www.w3.org/2000/svg">
    <style>
        .bar {
            transform-box: fill-box;
            transform-origin: bottom;
            animation: wave 1.5s ease-in-out infinite;
        }
        @keyframes wave {
            0%, 100% { transform: scaleY(0.3); }
            50% { transform: scaleY(1); }
        }
    </style>
    <rect class="bar" x="0" y="0" width="6" height="60" rx="3" fill="#7dcfff" style="animation-delay: 0.43s; animation-duration: 1.12s" /><rect class="bar" x="10" y="0" width="6" height="60" rx="3" fill="#7dcfff" style="animation-delay: 0.20s; animation-duration: 1.32s" /><rect class="bar" x="20" y="0" width="6" height="60" rx="3" fill="#b4f9f8" style="animation-delay: 0.98s; animation-duration: 1.70s" /><rect class="bar" x="30" y="0" width="6" height="60" rx="3" fill="#7dcfff" style="animation-delay: 0.50s; animation-duration: 1.38s" /><rect class="bar" x="40" y="0" width="6" height="60" rx="3" fill="#b4f9f8" style="animation-delay: 0.75s; animation-duration: 1.72s" /><rect class="bar" x="50" y="0" width="6" height="60" rx="3" fill="#7dcfff" style="animation-delay: 0.08s; animation-duration: 1.18s" /><rect class="bar" x="60" y="0" width="6" height="60" rx="3" fill="#2ac3de" style="animation-delay: 0.67s; animation-duration: 1.52s" /><rect class="bar" x="70" y="0" width="6" height="60" rx="3" fill="#bb9af7" style="animation-delay: 0.78s; animation-duration: 1.55s" /><rect class="bar" x="80" y="0" width="6" height="60" rx="3" fill="#b4f9f8" style="animation-delay: 1.16s; animation-duration: 1.19s" /><rect class="bar" x="90" y="0" width="6" height="60" rx="3" fill="#b4f9f8" style="animation-delay: 0.83s; animation-duration: 1.24s" /><rect class="bar" x="100" y="0" width="6" height="60" rx="3" fill="#7dcfff" style="animation-delay: 1.26s; animation-duration: 1.64s" /><rect class="bar" x="110" y="0" width="6" height="60" rx="3" fill="#b4f9f8" style="animation-delay: 0.57s; animation-duration: 1.40s" /><rect class="bar" x="120" y="0" width="6" height="60" rx="3" fill="#7aa2f7" style="animation-delay: 0.13s; animation-duration: 0.85s" /><rect class="bar" x="130" y="0" width="6" height="60" rx="3" fill="#2ac3de" style="animation-delay: 0.93s; animation-duration: 1.78s" /><rect class="bar" x="140" y="0" width="6" height="60" rx="3" fill="#b4f9f8" style="animation-delay: 1.17s; animation-duration: 0.89s" /><rect class="bar" x="150" y="0" width="6" height="60" rx="3" fill="#bb9af7" style="animation-delay: 1.43s; animation-duration: 1.53s" /><rect class="bar" x="160" y="0" width="6" height="60" rx="3" fill="#7dcfff" style="animation-delay: 1.20s; animation-duration: 1.17s" /><rect class="bar" x="170" y="0" width="6" height="60" rx="3" fill="#bb9af7" style="animation-delay: 1.03s; animation-duration: 1.13s" /><rect class="bar" x="180" y="0" width="6" height="60" rx="3" fill="#7aa2f7" style="animation-delay: 0.71s; animation-duration: 1.69s" /><rect class="bar" x="190" y="0" width="6" height="60" rx="3" fill="#7dcfff" style="animation-delay: 0.85s; animation-duration: 1.48s" /><rect class="bar" x="200" y="0" width="6" height="60" rx="3" fill="#bb9af7" style="animation-delay: 0.98s; animation-duration: 1.34s" /><rect class="bar" x="210" y="0" width="6" height="60" rx="3" fill="#7dcfff" style="animation-delay: 0.14s; animation-duration: 1.12s" /><rect class="bar" x="220" y="0" width="6" height="60" rx="3" fill="#b4f9f8" style="animation-delay: 1.32s; animation-duration: 1.55s" /><rect class="bar" x="230" y="0" width="6" height="60" rx="3" fill="#bb9af7" style="animation-delay: 1.29s; animation-duration: 1.38s" /><rect class="bar" x="240" y="0" width="6" height="60" rx="3" fill="#7dcfff" style="animation-delay: 0.74s; animation-duration: 0.99s" /><rect class="bar" x="250" y="0" width="6" height="60" rx="3" fill="#2ac3de" style="animation-delay: 0.30s; animation-duration: 1.67s" /><rect class="bar" x="260" y="0" width="6" height="60" rx="3" fill="#2ac3de" style="animation-delay: 0.20s; animation-duration: 0.93s" /><rect class="bar" x="270" y="0" width="6" height="60" rx="3" fill="#b4f9f8" style="animation-delay: 1.09s; animation-duration: 1.51s" /><rect class="bar" x="280" y="0" width="6" height="60" rx="3" fill="#7dcfff" style="animation-delay: 0.15s; animation-duration: 1.60s" /><rect class="bar" x="290" y="0" width="6" height="60" rx="3" fill="#7aa2f7" style="animation-delay: 0.80s; animation-duration: 1.78s" /><rect class="bar" x="300" y="0" width="6" height="60" rx="3" fill="#bb9af7" style="animation-delay: 0.39s; animation-duration: 0.95s" /><rect class="bar" x="310" y="0" width="6" height="60" rx="3" fill="#bb9af7" style="animation-delay: 0.34s; animation-duration: 1.59s" /><rect class="bar" x="320" y="0" width="6" height="60" rx="3" fill="#bb9af7" style="animation-delay: 0.75s; animation-duration: 0.99s" /><rect class="bar" x="330" y="0" width="6" height="60" rx="3" fill="#7aa2f7" style="animation-delay: 0.00s; animation-duration: 0.97s" /><rect class="bar" x="340" y="0" width="6" height="60" rx="3" fill="#b4f9f8" style="animation-delay: 0.76s; animation-duration: 1.22s" /><rect class="bar" x="350" y="0" width="6" height="60" rx="3" fill="#7aa2f7" style="animation-delay: 0.26s; animation-duration: 1.75s" /><rect class="bar" x="360" y="0" width="6" height="60" rx="3" fill="#2ac3de" style="animation-delay: 1.11s; animation-duration: 0.93s" /><rect class="bar" x="370" y="0" width="6" height="60" rx="3" fill="#7dcfff" style="animation-delay: 0.79s; animation-duration: 1.78s" /><rect class="bar" x="380" y="0" width="6" height="60" rx="3" fill="#b4f9f8" style="animation-delay: 0.24s; animation-duration: 0.83s" /><rect class="bar" x="390" y="0" width="6" height="60" rx="3" fill="#bb9af7" style="animation-delay: 0.60s; animation-duration: 1.12s" /></svg>