<svg width="400" height="60" viewBox="0 0 400 60" fill="none" xmlns="http://www.w3.org/2000/svg">
    <style>
        .bar {
            transform-box: fill-box;
            transform-origin: bottom;
            animation: wave 1.5s ease-in-out infinite;
        }
        @keyframes wave {
            0%, 100% { transform: scaleY(0.3); }
            50% { transform: scaleY(1); }
        }
    </style>
    <rect class="bar" x="0" y="0" width="6" height="60" rx="3" fill="#b4f9f8" style="animation-delay: 0.92s; animation-duration: 1.44s" /><rect class="bar" x="10" y="0" width="6" height="60" rx="3" fill="#bb9af7" style="animation-delay: 0.64s; animation-duration: 1.78s" /><rect class="bar" x="20" y="0" width="6" height="60" rx="3" fill="#2ac3de" style="animation-delay: 0.91s; animation-duration: 0.91s" /><rect class="bar" x="30" y="0" width="6" height="60" rx="3" fill="#bb9af7" style="animation-delay: 1.26s; animation-duration: 0.82s" /><rect class="bar" x="40" y="0" width="6" height="60" rx="3" fill="#7dcfff" style="animation-delay: 0.21s; animation-duration: 1.79s" /><rect class="bar" x="50" y="0" width="6" height="60" rx="3" fill="#2ac3de" style="animation-delay: 1.32s; animation-duration: 1.63s" /><rect class="bar" x="60" y="0" width="6" height="60" rx="3" fill="#b4f9f8" style="animation-delay: 1.49s; animation-duration: 0.94s" /><rect class="bar" x="70" y="0" width="6" height="60" rx="3" fill="#7dcfff" style="animation-delay: 0.49s; animation-duration: 1.37s" /><rect class="bar" x="80" y="0" width="6" height="60" rx="3" fill="#7aa2f7" style="animation-delay: 0.36s; animation-duration: 1.61s" /><rect class="bar" x="90" y="0" width="6" height="60" rx="3" fill="#7aa2f7" style="animation-delay: 0.94s; animation-duration: 1.12s" /><rect class="bar" x="100" y="0" width="6" height="60" rx="3" fill="#2ac3de" style="animation-delay: 0.20s; animation-duration: 1.38s" /><rect class="bar" x="110" y="0" width="6" height="60" rx="3" fill="#b4f9f8" style="animation-delay: 1.25s; animation-duration: 1.55s" /><rect class="bar" x="120" y="0" width="6" height="60" rx="3" fill="#2ac3de" style="animation-delay: 0.39s; animation-duration: 1.26s" /><rect class="bar" x="130" y="0" width="6" height="60" rx="3" fill="#bb9af7" style="animation-delay: 0.57s; animation-duration: 0.85s" /><rect class="bar" x="140" y="0" width="6" height="60" rx="3" fill="#7dcfff" style="animation-delay: 0.13s; animation-duration: 1.00s" /><rect class="bar" x="150" y="0" width="6" height="60" rx="3" fill="#2ac3de" style="animation-delay: 0.63s; animation-duration: 1.06s" /><rect class="bar" x="160" y="0" width="6" height="60" rx="3" fill="#2ac3de" style="animation-delay: 1.17s; animation-duration: 1.07s" /><rect class="bar" x="170" y="0" width="6" height="60" rx="3" fill="#2ac3de" style="animation-delay: 0.63s; animation-duration: 1.39s" /><rect class="bar" x="180" y="0" width="6" height="60" rx="3" fill="#b4f9f8" style="animation-delay: 1.14s; animation-duration: 1.27s" /><rect class="bar" x="190" y="0" width="6" height="60" rx="3" fill="#bb9af7" style="animation-delay: 1.30s; animation-duration: 1.62s" /><rect class="bar" x="200" y="0" width="6" height="60" rx="3" fill="#bb9af7" style="animation-delay: 0.01s; animation-duration: 1.74s" /><rect class="bar" x="210" y="0" width="6" height="60" rx="3" fill="#7dcfff" style="animation-delay: 0.81s; animation-duration: 1.30s" /><rect class="bar" x="220" y="0" width="6" height="60" rx="3" fill="#bb9af7" style="animation-delay: 0.39s; animation-duration: 1.74s" /><rect class="bar" x="230" y="0" width="6" height="60" rx="3" fill="#bb9af7" style="animation-delay: 0.71s; animation-duration: 1.47s" /><rect class="bar" x="240" y="0" width="6" height="60" rx="3" fill="#b4f9f8" style="animation-delay: 1.18s; animation-duration: 1.14s" /><rect class="bar" x="250" y="0" width="6" height="60" rx="3" fill="#b4f9f8" style="animation-delay: 1.12s; animation-duration: 1.22s" /><rect class="bar" x="260" y="0" width="6" height="60" rx="3" fill="#b4f9f8" style="animation-delay: 0.51s; animation-duration: 1.16s" /><rect class="bar" x="270" y="0" width="6" height="60" rx="3" fill="#7aa2f7" style="animation-delay: 0.88s; animation-duration: 1.26s" /><rect class="bar" x="280" y="0" width="6" height="60" rx="3" fill="#7dcfff" style="animation-delay: 0.12s; animation-duration: 1.56s" /><rect class="bar" x="290" y="0" width="6" height="60" rx="3" fill="#bb9af7" style="animation-delay: 0.48s; animation-duration: 1.15s" /><rect class="bar" x="300" y="0" width="6" height="60" rx="3" fill="#bb9af7" style="animation-delay: 0.97s; animation-duration: 0.97s" /><rect class="bar" x="310" y="0" width="6" height="60" rx="3" fill="#7aa2f7" style="animation-delay: 0.07s; animation-duration: 1.31s" /><rect class="bar" x="320" y="0" width="6" height="60" rx="3" fill="#2ac3de" style="animation-delay: 1.38s; animation-duration: 1.77s" /><rect class="bar" x="330" y="0" width="6" height="60" rx="3" fill="#2ac3de" style="animation-delay: 1.10s; animation-duration: 1.77s" /><rect class="bar" x="340" y="0" width="6" height="60" rx="3" fill="#2ac3de" style="animation-delay: 0.59s; animation-duration: 1.21s" /><rect class="bar" x="350" y="0" width="6" height="60" rx="3" fill="#2ac3de" style="animation-delay: 1.25s; animation-duration: 1.50s" /><rect class="bar" x="360" y="0" width="6" height="60" rx="3" fill="#7aa2f7" style="animation-delay: 0.76s; animation-duration: 1.37s" /><rect class="bar" x="370" y="0" width="6" height="60" rx="3" fill="#b4f9f8" style="animation-delay: 1.11s; animation-duration: 1.66s" /><rect class="bar" x="380" y="0" width="6" height="60" rx="3" fill="#7dcfff" style="animation-delay: 1.01s; animation-duration: 1.26s" /><rect class="bar" x="390" y="0" width="6" height="60" rx="3" fill="#2ac3de" style="animation-delay: 0.25s; animation-duration: 1.24s" /></svg>