<svg width="400" height="60" viewBox="0 0 400 60" fill="none" xmlns="http://www.w3.org/2000/svg">
    <style>
        .bar {
            transform-box: fill-box;
            transform-origin: bottom;
            animation: wave 1.5s ease-in-out infinite;
        }
        @keyframes wave {
            0%, 100% { transform: scaleY(0.3); }
            50% { transform: scaleY(1); }
        }
    </style>
    <rect class="bar" x="0" y="0" width="6" height="60" rx="3" fill="#7aa2f7" style="animation-delay: 1.21s; animation-duration: 1.35s" /><rect class="bar" x="10" y="0" width="6" height="60" rx="3" fill="#7aa2f7" style="animation-delay: 1.38s; animation-duration: 1.07s" /><rect class="bar" x="20" y="0" width="6" height="60" rx="3" fill="#2ac3de" style="animation-delay: 1.41s; animation-duration: 1.69s" /><rect class="bar" x="30" y="0" width="6" height="60" rx="3" fill="#bb9af7" style="animation-delay: 0.10s; animation-duration: 1.08s" /><rect class="bar" x="40" y="0" width="6" height="60" rx="3" fill="#b4f9f8" style="animation-delay: 0.96s; animation-duration: 1.67s" /><rect class="bar" x="50" y="0" width="6" height="60" rx="3" fill="#bb9af7" style="animation-delay: 0.78s; animation-duration: 1.29s" /><rect class="bar" x="60" y="0" width="6" height="60" rx="3" fill="#b4f9f8" style="animation-delay: 1.08s; animation-duration: 1.28s" /><rect class="bar" x="70" y="0" width="6" height="60" rx="3" fill="#bb9af7" style="animation-delay: 0.41s; animation-duration: 1.18s" /><rect class="bar" x="80" y="0" width="6" height="60" rx="3" fill="#bb9af7" style="animation-delay: 0.80s; animation-duration: 0.84s" /><rect class="bar" x="90" y="0" width="6" height="60" rx="3" fill="#2ac3de" style="animation-delay: 0.32s; animation-duration: 1.46s" /><rect class="bar" x="100" y="0" width="6" height="60" rx="3" fill="#7aa2f7" style="animation-delay: 0.46s; animation-duration: 1.67s" /><rect class="bar" x="110" y="0" width="6" height="60" rx="3" fill="#7dcfff" style="animation-delay: 0.03s; animation-duration: 1.50s" /><rect class="bar" x="120" y="0" width="6" height="60" rx="3" fill="#2ac3de" style="animation-delay: 0.24s; animation-duration: 1.34s" /><rect class="bar" x="130" y="0" width="6" height="60" rx="3" fill="#bb9af7" style="animation-delay: 1.36s; animation-duration: 1.23s" /><rect class="bar" x="140" y="0" width="6" height="60" rx="3" fill="#2ac3de" style="animation-delay: 1.31s; animation-duration: 1.36s" /><rect class="bar" x="150" y="0" width="6" height="60" rx="3" fill="#b4f9f8" style="animation-delay: 0.19s; animation-duration: 1.04s" /><rect class="bar" x="160" y="0" width="6" height="60" rx="3" fill="#bb9af7" style="animation-delay: 0.81s; animation-duration: 1.27s" /><rect class="bar" x="170" y="0" width="6" height="60" rx="3" fill="#2ac3de" style="animation-delay: 1.01s; animation-duration: 1.30s" /><rect class="bar" x="180" y="0" width="6" height="60" rx="3" fill="#b4f9f8" style="animation-delay: 0.28s; animation-duration: 1.75s" /><rect class="bar" x="190" y="0" width="6" height="60" rx="3" fill="#bb9af7" style="animation-delay: 0.36s; animation-duration: 1.18s" /><rect class="bar" x="200" y="0" width="6" height="60" rx="3" fill="#7dcfff" style="animation-delay: 0.32s; animation-duration: 1.18s" /><rect class="bar" x="210" y="0" width="6" height="60" rx="3" fill="#b4f9f8" style="animation-delay: 0.02s; animation-duration: 1.05s" /><rect class="bar" x="220" y="0" width="6" height="60" rx="3" fill="#7aa2f7" style="animation-delay: 1.17s; animation-duration: 1.43s" /><rect class="bar" x="230" y="0" width="6" height="60" rx="3" fill="#7dcfff" style="animation-delay: 0.06s; animation-duration: 1.20s" /><rect class="bar" x="240" y="0" width="6" height="60" rx="3" fill="#2ac3de" style="animation-delay: 1.10s; animation-duration: 1.69s" /><rect class="bar" x="250" y="0" width="6" height="60" rx="3" fill="#bb9af7" style="animation-delay: 0.51s; animation-duration: 1.02s" /><rect class="bar" x="260" y="0" width="6" height="60" rx="3" fill="#7dcfff" style="animation-delay: 0.99s; animation-duration: 0.95s" /><rect class="bar" x="270" y="0" width="6" height="60" rx="3" fill="#bb9af7" style="animation-delay: 0.53s; animation-duration: 1.42s" /><rect class="bar" x="280" y="0" width="6" height="60" rx="3" fill="#b4f9f8" style="animation-delay: 1.05s; animation-duration: 0.90s" /><rect class="bar" x="290" y="0" width="6" height="60" rx="3" fill="#7aa2f7" style="animation-delay: 0.15s; animation-duration: 1.43s" /><rect class="bar" x="300" y="0" width="6" height="60" rx="3" fill="#b4f9f8" style="animation-delay: 0.96s; animation-duration: 1.02s" /><rect class="bar" x="310" y="0" width="6" height="60" rx="3" fill="#7dcfff" style="animation-delay: 1.07s; animation-duration: 1.56s" /><rect class="bar" x="320" y="0" width="6" height="60" rx="3" fill="#bb9af7" style="animation-delay: 1.07s; animation-duration: 1.37s" /><rect class="bar" x="330" y="0" width="6" height="60" rx="3" fill="#7aa2f7" style="animation-delay: 0.27s; animation-duration: 1.13s" /><rect class="bar" x="340" y="0" width="6" height="60" rx="3" fill="#7aa2f7" style="animation-delay: 1.43s; animation-duration: 0.92s" /><rect class="bar" x="350" y="0" width="6" height="60" rx="3" fill="#b4f9f8" style="animation-delay: 1.10s; animation-duration: 1.55s" /><rect class="bar" x="360" y="0" width="6" height="60" rx="3" fill="#7dcfff" style="animation-delay: 0.74s; animation-duration: 1.05s" /><rect class="bar" x="370" y="0" width="6" height="60" rx="3" fill="#2ac3de" style="animation-delay: 0.13s; animation-duration: 1.08s" /><rect class="bar" x="380" y="0" width="6" height="60" rx="3" fill="#b4f9f8" style="animation-delay: 0.56s; animation-duration: 0.99s" /><rect class="bar" x="390" y="0" width="6" height="60" rx="3" fill="#7aa2f7" style="animation-delay: 0.16s; animation-duration: 0.94s" /></svg>