<svg width="400" height="60" viewBox="0 0 400 60" fill="none" xmlns="http://www.w3.org/2000/svg">
    <style>
        .bar {
            transform-box: fill-box;
            transform-origin: bottom;
            animation: wave 1.5s ease-in-out infinite;
        }
        @keyframes wave {
            0%, 100% { transform: scaleY(0.3); }
            50% { transform: scaleY(1); }
        }
    </style>
    <rect class="bar" x="0" y="0" width="6" height="60" rx="3" fill="#bb9af7" style="animation-delay: 0.85s; animation-duration: 1.22s" /><rect class="bar" x="10" y="0" width="6" height="60" rx="3" fill="#7aa2f7" style="animation-delay: 0.70s; animation-duration: 1.55s" /><rect class="bar" x="20" y="0" width="6" height="60" rx="3" fill="#bb9af7" style="animation-delay: 0.62s; animation-duration: 1.04s" /><rect class="bar" x="30" y="0" width="6" height="60" rx="3" fill="#7dcfff" style="animation-delay: 0.30s; animation-duration: 1.15s" /><rect class="bar" x="40" y="0" width="6" height="60" rx="3" fill="#7dcfff" style="animation-delay: 0.19s; animation-duration: 1.56s" /><rect class="bar" x="50" y="0" width="6" height="60" rx="3" fill="#2ac3de" style="animation-delay: 0.01s; animation-duration: 1.55s" /><rect class="bar" x="60" y="0" width="6" height="60" rx="3" fill="#bb9af7" style="animation-delay: 0.48s; animation-duration: 1.52s" /><rect class="bar" x="70" y="0" width="6" height="60" rx="3" fill="#7aa2f7" style="animation-delay: 0.35s; animation-duration: 1.41s" /><rect class="bar" x="80" y="0" width="6" height="60" rx="3" fill="#7aa2f7" style="animation-delay: 0.13s; animation-duration: 1.58s" /><rect class="bar" x="90" y="0" width="6" height="60" rx="3" fill="#2ac3de" style="animation-delay: 0.04s; animation-duration: 1.25s" /><rect class="bar" x="100" y="0" width="6" height="60" rx="3" fill="#2ac3de" style="animation-delay: 0.14s; animation-duration: 1.04s" /><rect class="bar" x="110" y="0" width="6" height="60" rx="3" fill="#2ac3de" style="animation-delay: 1.37s; animation-duration: 1.49s" /><rect class="bar" x="120" y="0" width="6" height="60" rx="3" fill="#7dcfff" style="animation-delay: 1.44s; animation-duration: 1.00s" /><rect class="bar" x="130" y="0" width="6" height="60" rx="3" fill="#2ac3de" style="animation-delay: 0.03s; animation-duration: 0.89s" /><rect class="bar" x="140" y="0" width="6" height="60" rx="3" fill="#bb9af7" style="animation-delay: 0.16s; animation-duration: 0.93s" /><rect class="bar" x="150" y="0" width="6" height="60" rx="3" fill="#7dcfff" style="animation-delay: 1.25s; animation-duration: 1.41s" /><rect class="bar" x="160" y="0" width="6" height="60" rx="3" fill="#2ac3de" style="animation-delay: 0.87s; animation-duration: 0.96s" /><rect class="bar" x="170" y="0" width="6" height="60" rx="3" fill="#b4f9f8" style="animation-delay: 0.63s; animation-duration: 1.77s" /><rect class="bar" x="180" y="0" width="6" height="60" rx="3" fill="#b4f9f8" style="animation-delay: 0.78s; animation-duration: 1.32s" /><rect class="bar" x="190" y="0" width="6" height="60" rx="3" fill="#bb9af7" style="animation-delay: 1.24s; animation-duration: 1.46s" /><rect class="bar" x="200" y="0" width="6" height="60" rx="3" fill="#7dcfff" style="animation-delay: 0.98s; animation-duration: 1.64s" /><rect class="bar" x="210" y="0" width="6" height="60" rx="3" fill="#2ac3de" style="animation-delay: 0.73s; animation-duration: 0.86s" /><rect class="bar" x="220" y="0" width="6" height="60" rx="3" fill="#7aa2f7" style="animation-delay: 0.89s; animation-duration: 1.55s" /><rect class="bar" x="230" y="0" width="6" height="60" rx="3" fill="#7aa2f7" style="animation-delay: 0.74s; animation-duration: 1.74s" /><rect class="bar" x="240" y="0" width="6" height="60" rx="3" fill="#7dcfff" style="animation-delay: 0.71s; animation-duration: 0.84s" /><rect class="bar" x="250" y="0" width="6" height="60" rx="3" fill="#bb9af7" style="animation-delay: 1.01s; animation-duration: 1.44s" /><rect class="bar" x="260" y="0" width="6" height="60" rx="3" fill="#2ac3de" style="animation-delay: 0.65s; animation-duration: 1.73s" /><rect class="bar" x="270" y="0" width="6" height="60" rx="3" fill="#7dcfff" style="animation-delay: 1.44s; animation-duration: 1.05s" /><rect class="bar" x="280" y="0" width="6" height="60" rx="3" fill="#b4f9f8" style="animation-delay: 0.33s; animation-duration: 1.72s" /><rect class="bar" x="290" y="0" width="6" height="60" rx="3" fill="#2ac3de" style="animation-delay: 0.05s; animation-duration: 0.84s" /><rect class="bar" x="300" y="0" width="6" height="60" rx="3" fill="#7dcfff" style="animation-delay: 0.10s; animation-duration: 0.92s" /><rect class="bar" x="310" y="0" width="6" height="60" rx="3" fill="#2ac3de" style="animation-delay: 0.86s; animation-duration: 1.45s" /><rect class="bar" x="320" y="0" width="6" height="60" rx="3" fill="#7aa2f7" style="animation-delay: 0.33s; animation-duration: 0.81s" /><rect class="bar" x="330" y="0" width="6" height="60" rx="3" fill="#7aa2f7" style="animation-delay: 1.09s; animation-duration: 1.73s" /><rect class="bar" x="340" y="0" width="6" height="60" rx="3" fill="#7aa2f7" style="animation-delay: 0.48s; animation-duration: 1.20s" /><rect class="bar" x="350" y="0" width="6" height="60" rx="3" fill="#2ac3de" style="animation-delay: 1.33s; animation-duration: 1.14s" /><rect class="bar" x="360" y="0" width="6" height="60" rx="3" fill="#7aa2f7" style="animation-delay: 0.86s; animation-duration: 1.26s" /><rect class="bar" x="370" y="0" width="6" height="60" rx="3" fill="#7aa2f7" style="animation-delay: 0.64s; animation-duration: 1.30s" /><rect class="bar" x="380" y="0" width="6" height="60" rx="3" fill="#2ac3de" style="animation-delay: 0.15s; animation-duration: 1.19s" /><rect class="bar" x="390" y="0" width="6" height="60" rx="3" fill="#bb9af7" style="animation-delay: 0.29s; animation-duration: 0.90s" /></svg>