<svg width="400" height="60" viewBox="0 0 400 60" fill="none" xmlns="http://www.w3.org/2000/svg">
    <style>
        .bar {
            transform-box: fill-box;
            transform-origin: bottom;
            animation: wave 1.5s ease-in-out infinite;
        }
        @keyframes wave {
            0%, 100% { transform: scaleY(0.3); }
            50% { transform: scaleY(1); }
        }
    </style>
    <rect class="bar" x="0" y="0" width="6" height="60" rx="3" fill="#2ac3de" style="animation-delay: 0.72s; animation-duration: 1.47s" /><rect class="bar" x="10" y="0" width="6" height="60" rx="3" fill="#bb9af7" style="animation-delay: 0.74s; animation-duration: 0.92s" /><rect class="bar" x="20" y="0" width="6" height="60" rx="3" fill="#2ac3de" style="animation-delay: 0.36s; animation-duration: 1.73s" /><rect class="bar" x="30" y="0" width="6" height="60" rx="3" fill="#2ac3de" style="animation-delay: 0.93s; animation-duration: 1.09s" /><rect class="bar" x="40" y="0" width="6" height="60" rx="3" fill="#7aa2f7" style="animation-delay: 0.81s; animation-duration: 1.32s" /><rect class="bar" x="50" y="0" width="6" height="60" rx="3" fill="#bb9af7" style="animation-delay: 1.27s; animation-duration: 1.38s" /><rect class="bar" x="60" y="0" width="6" height="60" rx="3" fill="#b4f9f8" style="animation-delay: 0.94s; animation-duration: 1.32s" /><rect class="bar" x="70" y="0" width="6" height="60" rx="3" fill="#bb9af7" style="animation-delay: 0.43s; animation-duration: 1.75s" /><rect class="bar" x="80" y="0" width="6" height="60" rx="3" fill="#2ac3de" style="animation-delay: 0.43s; animation-duration: 0.88s" /><rect class="bar" x="90" y="0" width="6" height="60" rx="3" fill="#7dcfff" style="animation-delay: 1.17s; animation-duration: 1.80s" /><rect class="bar" x="100" y="0" width="6" height="60" rx="3" fill="#bb9af7" style="animation-delay: 0.43s; animation-duration: 1.25s" /><rect class="bar" x="110" y="0" width="6" height="60" rx="3" fill="#2ac3de" style="animation-delay: 1.37s; animation-duration: 1.48s" /><rect class="bar" x="120" y="0" width="6" height="60" rx="3" fill="#2ac3de" style="animation-delay: 1.43s; animation-duration: 1.77s" /><rect class="bar" x="130" y="0" width="6" height="60" rx="3" fill="#7aa2f7" style="animation-delay: 0.89s; animation-duration: 1.74s" /><rect class="bar" x="140" y="0" width="6" height="60" rx="3" fill="#bb9af7" style="animation-delay: 0.83s; animation-duration: 1.72s" /><rect class="bar" x="150" y="0" width="6" height="60" rx="3" fill="#2ac3de" style="animation-delay: 0.07s; animation-duration: 1.02s" /><rect class="bar" x="160" y="0" width="6" height="60" rx="3" fill="#7dcfff" style="animation-delay: 0.81s; animation-duration: 0.83s" /><rect class="bar" x="170" y="0" width="6" height="60" rx="3" fill="#7aa2f7" style="animation-delay: 1.30s; animation-duration: 1.53s" /><rect class="bar" x="180" y="0" width="6" height="60" rx="3" fill="#7aa2f7" style="animation-delay: 1.14s; animation-duration: 0.93s" /><rect class="bar" x="190" y="0" width="6" height="60" rx="3" fill="#2ac3de" style="animation-delay: 1.30s; animation-duration: 1.11s" /><rect class="bar" x="200" y="0" width="6" height="60" rx="3" fill="#7dcfff" style="animation-delay: 0.42s; animation-duration: 1.24s" /><rect class="bar" x="210" y="0" width="6" height="60" rx="3" fill="#7dcfff" style="animation-delay: 0.58s; animation-duration: 1.25s" /><rect class="bar" x="220" y="0" width="6" height="60" rx="3" fill="#7aa2f7" style="animation-delay: 0.19s; animation-duration: 1.08s" /><rect class="bar" x="230" y="0" width="6" height="60" rx="3" fill="#bb9af7" style="animation-delay: 0.09s; animation-duration: 0.98s" /><rect class="bar" x="240" y="0" width="6" height="60" rx="3" fill="#7aa2f7" style="animation-delay: 0.91s; animation-duration: 1.39s" /><rect class="bar" x="250" y="0" width="6" height="60" rx="3" fill="#7dcfff" style="animation-delay: 0.55s; animation-duration: 0.96s" /><rect class="bar" x="260" y="0" width="6" height="60" rx="3" fill="#7aa2f7" style="animation-delay: 0.15s; animation-duration: 1.41s" /><rect class="bar" x="270" y="0" width="6" height="60" rx="3" fill="#7aa2f7" style="animation-delay: 0.81s; animation-duration: 1.08s" /><rect class="bar" x="280" y="0" width="6" height="60" rx="3" fill="#b4f9f8" style="animation-delay: 1.24s; animation-duration: 1.06s" /><rect class="bar" x="290" y="0" width="6" height="60" rx="3" fill="#7dcfff" style="animation-delay: 0.38s; animation-duration: 0.92s" /><rect class="bar" x="300" y="0" width="6" height="60" rx="3" fill="#7aa2f7" style="animation-delay: 0.08s; animation-duration: 1.05s" /><rect class="bar" x="310" y="0" width="6" height="60" rx="3" fill="#bb9af7" style="animation-delay: 0.75s; animation-duration: 1.24s" /><rect class="bar" x="320" y="0" width="6" height="60" rx="3" fill="#7dcfff" style="animation-delay: 1.28s; animation-duration: 0.93s" /><rect class="bar" x="330" y="0" width="6" height="60" rx="3" fill="#7dcfff" style="animation-delay: 0.85s; animation-duration: 1.31s" /><rect class="bar" x="340" y="0" width="6" height="60" rx="3" fill="#b4f9f8" style="animation-delay: 0.87s; animation-duration: 0.92s" /><rect class="bar" x="350" y="0" width="6" height="60" rx="3" fill="#7dcfff" style="animation-delay: 0.29s; animation-duration: 1.12s" /><rect class="bar" x="360" y="0" width="6" height="60" rx="3" fill="#2ac3de" style="animation-delay: 0.82s; animation-duration: 1.51s" /><rect class="bar" x="370" y="0" width="6" height="60" rx="3" fill="#7aa2f7" style="animation-delay: 1.30s; animation-duration: 1.45s" /><rect class="bar" x="380" y="0" width="6" height="60" rx="3" fill="#b4f9f8" style="animation-delay: 0.96s; animation-duration: 1.55s" /><rect class="bar" x="390" y="0" width="6" height="60" rx="3" fill="#7aa2f7" style="animation-delay: 1.28s; animation-duration: 1.56s" /></svg>