<svg width="400" height="60" viewBox="0 0 400 60" fill="none" xmlns="http://www.w3.org/2000/svg">
    <style>
        .bar {
            transform-box: fill-box;
            transform-origin: bottom;
            animation: wave 1.5s ease-in-out infinite;
        }
        @keyframes wave {
            0%, 100% { transform: scaleY(0.3); }
            50% { transform: scaleY(1); }
        }
    </style>
    <rect class="bar" x="0" y="0" width="6" height="60" rx="3" fill="#b4f9f8" style="animation-delay: 0.51s; animation-duration: 1.42s" /><rect class="bar" x="10" y="0" width="6" height="60" rx="3" fill="#bb9af7" style="animation-delay: 0.30s; animation-duration: 0.83s" /><rect class="bar" x="20" y="0" width="6" height="60" rx="3" fill="#7dcfff" style="animation-delay: 0.54s; animation-duration: 1.78s" /><rect class="bar" x="30" y="0" width="6" height="60" rx="3" fill="#b4f9f8" style="animation-delay: 0.23s; animation-duration: 0.90s" /><rect class="bar" x="40" y="0" width="6" height="60" rx="3" fill="#7dcfff" style="animation-delay: 1.49s; animation-duration: 0.88s" /><rect class="bar" x="50" y="0" width="6" height="60" rx="3" fill="#7dcfff" style="animation-delay: 0.63s; animation-duration: 1.54s" /><rect class="bar" x="60" y="0" width="6" height="60" rx="3" fill="#bb9af7" style="animation-delay: 0.74s; animation-duration: 1.69s" /><rect class="bar" x="70" y="0" width="6" height="60" rx="3" fill="#b4f9f8" style="animation-delay: 0.92s; animation-duration: 1.35s" /><rect class="bar" x="80" y="0" width="6" height="60" rx="3" fill="#bb9af7" style="animation-delay: 0.04s; animation-duration: 1.45s" /><rect class="bar" x="90" y="0" width="6" height="60" rx="3" fill="#7aa2f7" style="animation-delay: 1.46s; animation-duration: 1.35s" /><rect class="bar" x="100" y="0" width="6" height="60" rx="3" fill="#bb9af7" style="animation-delay: 1.37s; animation-duration: 1.14s" /><rect class="bar" x="110" y="0" width="6" height="60" rx="3" fill="#bb9af7" style="animation-delay: 1.44s; animation-duration: 0.84s" /><rect class="bar" x="120" y="0" width="6" height="60" rx="3" fill="#7dcfff" style="animation-delay: 1.17s; animation-duration: 1.64s" /><rect class="bar" x="130" y="0" width="6" height="60" rx="3" fill="#7aa2f7" style="animation-delay: 0.48s; animation-duration: 1.67s" /><rect class="bar" x="140" y="0" width="6" height="60" rx="3" fill="#b4f9f8" style="animation-delay: 1.11s; animation-duration: 1.25s" /><rect class="bar" x="150" y="0" width="6" height="60" rx="3" fill="#bb9af7" style="animation-delay: 0.16s; animation-duration: 1.05s" /><rect class="bar" x="160" y="0" width="6" height="60" rx="3" fill="#b4f9f8" style="animation-delay: 0.00s; animation-duration: 0.90s" /><rect class="bar" x="170" y="0" width="6" height="60" rx="3" fill="#2ac3de" style="animation-delay: 0.03s; animation-duration: 1.59s" /><rect class="bar" x="180" y="0" width="6" height="60" rx="3" fill="#b4f9f8" style="animation-delay: 0.40s; animation-duration: 1.01s" /><rect class="bar" x="190" y="0" width="6" height="60" rx="3" fill="#7aa2f7" style="animation-delay: 0.95s; animation-duration: 1.31s" /><rect class="bar" x="200" y="0" width="6" height="60" rx="3" fill="#7aa2f7" style="animation-delay: 0.95s; animation-duration: 1.33s" /><rect class="bar" x="210" y="0" width="6" height="60" rx="3" fill="#b4f9f8" style="animation-delay: 1.48s; animation-duration: 0.99s" /><rect class="bar" x="220" y="0" width="6" height="60" rx="3" fill="#bb9af7" style="animation-delay: 1.27s; animation-duration: 1.54s" /><rect class="bar" x="230" y="0" width="6" height="60" rx="3" fill="#bb9af7" style="animation-delay: 1.00s; animation-duration: 1.55s" /><rect class="bar" x="240" y="0" width="6" height="60" rx="3" fill="#7aa2f7" style="animation-delay: 0.52s; animation-duration: 1.16s" /><rect class="bar" x="250" y="0" width="6" height="60" rx="3" fill="#2ac3de" style="animation-delay: 1.01s; animation-duration: 0.98s" /><rect class="bar" x="260" y="0" width="6" height="60" rx="3" fill="#2ac3de" style="animation-delay: 1.41s; animation-duration: 1.27s" /><rect class="bar" x="270" y="0" width="6" height="60" rx="3" fill="#b4f9f8" style="animation-delay: 1.03s; animation-duration: 0.94s" /><rect class="bar" x="280" y="0" width="6" height="60" rx="3" fill="#7dcfff" style="animation-delay: 1.22s; animation-duration: 1.00s" /><rect class="bar" x="290" y="0" width="6" height="60" rx="3" fill="#2ac3de" style="animation-delay: 1.28s; animation-duration: 1.46s" /><rect class="bar" x="300" y="0" width="6" height="60" rx="3" fill="#7aa2f7" style="animation-delay: 0.04s; animation-duration: 0.84s" /><rect class="bar" x="310" y="0" width="6" height="60" rx="3" fill="#7dcfff" style="animation-delay: 0.69s; animation-duration: 1.79s" /><rect class="bar" x="320" y="0" width="6" height="60" rx="3" fill="#b4f9f8" style="animation-delay: 1.14s; animation-duration: 1.74s" /><rect class="bar" x="330" y="0" width="6" height="60" rx="3" fill="#2ac3de" style="animation-delay: 0.35s; animation-duration: 0.96s" /><rect class="bar" x="340" y="0" width="6" height="60" rx="3" fill="#b4f9f8" style="animation-delay: 0.66s; animation-duration: 1.19s" /><rect class="bar" x="350" y="0" width="6" height="60" rx="3" fill="#bb9af7" style="animation-delay: 0.90s; animation-duration: 1.01s" /><rect class="bar" x="360" y="0" width="6" height="60" rx="3" fill="#7dcfff" style="animation-delay: 0.49s; animation-duration: 1.09s" /><rect class="bar" x="370" y="0" width="6" height="60" rx="3" fill="#b4f9f8" style="animation-delay: 0.33s; animation-duration: 1.13s" /><rect class="bar" x="380" y="0" width="6" height="60" rx="3" fill="#7dcfff" style="animation-delay: 1.01s; animation-duration: 1.45s" /><rect class="bar" x="390" y="0" width="6" height="60" rx="3" fill="#2ac3de" style="animation-delay: 1.31s; animation-duration: 1.46s" /></svg>