<svg width="400" height="60" viewBox="0 0 400 60" fill="none" xmlns="http://www.w3.org/2000/svg">
    <style>
        .bar {
            transform-box: fill-box;
            transform-origin: bottom;
            animation: wave 1.5s ease-in-out infinite;
        }
        @keyframes wave {
            0%, 100% { transform: scaleY(0.3); }
            50% { transform: scaleY(1); }
        }
    </style>
    <rect class="bar" x="0" y="0" width="6" height="60" rx="3" fill="#2ac3de" style="animation-delay: 0.43s; animation-duration: 1.70s" /><rect class="bar" x="10" y="0" width="6" height="60" rx="3" fill="#2ac3de" style="animation-delay: 0.37s; animation-duration: 1.77s" /><rect class="bar" x="20" y="0" width="6" height="60" rx="3" fill="#7aa2f7" style="animation-delay: 0.34s; animation-duration: 0.82s" /><rect class="bar" x="30" y="0" width="6" height="60" rx="3" fill="#7aa2f7" style="animation-delay: 0.29s; animation-duration: 1.03s" /><rect class="bar" x="40" y="0" width="6" height="60" rx="3" fill="#b4f9f8" style="animation-delay: 0.30s; animation-duration: 1.54s" /><rect class="bar" x="50" y="0" width="6" height="60" rx="3" fill="#bb9af7" style="animation-delay: 0.13s; animation-duration: 0.87s" /><rect class="bar" x="60" y="0" width="6" height="60" rx="3" fill="#7dcfff" style="animation-delay: 0.95s; animation-duration: 1.46s" /><rect class="bar" x="70" y="0" width="6" height="60" rx="3" fill="#7dcfff" style="animation-delay: 1.27s; animation-duration: 1.33s" /><rect class="bar" x="80" y="0" width="6" height="60" rx="3" fill="#7dcfff" style="animation-delay: 1.04s; animation-duration: 1.77s" /><rect class="bar" x="90" y="0" width="6" height="60" rx="3" fill="#bb9af7" style="animation-delay: 0.33s; animation-duration: 1.73s" /><rect class="bar" x="100" y="0" width="6" height="60" rx="3" fill="#bb9af7" style="animation-delay: 0.20s; animation-duration: 1.52s" /><rect class="bar" x="110" y="0" width="6" height="60" rx="3" fill="#bb9af7" style="animation-delay: 0.77s; animation-duration: 1.00s" /><rect class="bar" x="120" y="0" width="6" height="60" rx="3" fill="#2ac3de" style="animation-delay: 0.03s; animation-duration: 0.98s" /><rect class="bar" x="130" y="0" width="6" height="60" rx="3" fill="#2ac3de" style="animation-delay: 1.15s; animation-duration: 0.97s" /><rect class="bar" x="140" y="0" width="6" height="60" rx="3" fill="#7dcfff" style="animation-delay: 0.32s; animation-duration: 1.36s" /><rect class="bar" x="150" y="0" width="6" height="60" rx="3" fill="#7dcfff" style="animation-delay: 1.29s; animation-duration: 1.66s" /><rect class="bar" x="160" y="0" width="6" height="60" rx="3" fill="#7aa2f7" style="animation-delay: 0.27s; animation-duration: 1.19s" /><rect class="bar" x="170" y="0" width="6" height="60" rx="3" fill="#2ac3de" style="animation-delay: 0.44s; animation-duration: 1.71s" /><rect class="bar" x="180" y="0" width="6" height="60" rx="3" fill="#bb9af7" style="animation-delay: 0.99s; animation-duration: 1.34s" /><rect class="bar" x="190" y="0" width="6" height="60" rx="3" fill="#bb9af7" style="animation-delay: 0.74s; animation-duration: 1.73s" /><rect class="bar" x="200" y="0" width="6" height="60" rx="3" fill="#7dcfff" style="animation-delay: 0.72s; animation-duration: 1.56s" /><rect class="bar" x="210" y="0" width="6" height="60" rx="3" fill="#7dcfff" style="animation-delay: 0.20s; animation-duration: 1.57s" /><rect class="bar" x="220" y="0" width="6" height="60" rx="3" fill="#7aa2f7" style="animation-delay: 0.19s; animation-duration: 1.54s" /><rect class="bar" x="230" y="0" width="6" height="60" rx="3" fill="#7aa2f7" style="animation-delay: 0.35s; animation-duration: 1.68s" /><rect class="bar" x="240" y="0" width="6" height="60" rx="3" fill="#2ac3de" style="animation-delay: 0.30s; animation-duration: 1.37s" /><rect class="bar" x="250" y="0" width="6" height="60" rx="3" fill="#2ac3de" style="animation-delay: 0.64s; animation-duration: 0.90s" /><rect class="bar" x="260" y="0" width="6" height="60" rx="3" fill="#bb9af7" style="animation-delay: 1.38s; animation-duration: 1.07s" /><rect class="bar" x="270" y="0" width="6" height="60" rx="3" fill="#7dcfff" style="animation-delay: 1.18s; animation-duration: 1.49s" /><rect class="bar" x="280" y="0" width="6" height="60" rx="3" fill="#b4f9f8" style="animation-delay: 0.81s; animation-duration: 1.44s" /><rect class="bar" x="290" y="0" width="6" height="60" rx="3" fill="#7dcfff" style="animation-delay: 0.35s; animation-duration: 1.00s" /><rect class="bar" x="300" y="0" width="6" height="60" rx="3" fill="#bb9af7" style="animation-delay: 0.80s; animation-duration: 1.68s" /><rect class="bar" x="310" y="0" width="6" height="60" rx="3" fill="#2ac3de" style="animation-delay: 0.60s; animation-duration: 1.65s" /><rect class="bar" x="320" y="0" width="6" height="60" rx="3" fill="#b4f9f8" style="animation-delay: 1.09s; animation-duration: 0.83s" /><rect class="bar" x="330" y="0" width="6" height="60" rx="3" fill="#bb9af7" style="animation-delay: 0.21s; animation-duration: 1.30s" /><rect class="bar" x="340" y="0" width="6" height="60" rx="3" fill="#2ac3de" style="animation-delay: 0.89s; animation-duration: 1.30s" /><rect class="bar" x="350" y="0" width="6" height="60" rx="3" fill="#b4f9f8" style="animation-delay: 1.22s; animation-duration: 1.23s" /><rect class="bar" x="360" y="0" width="6" height="60" rx="3" fill="#2ac3de" style="animation-delay: 0.06s; animation-duration: 1.28s" /><rect class="bar" x="370" y="0" width="6" height="60" rx="3" fill="#bb9af7" style="animation-delay: 0.58s; animation-duration: 1.20s" /><rect class="bar" x="380" y="0" width="6" height="60" rx="3" fill="#bb9af7" style="animation-delay: 0.20s; animation-duration: 1.37s" /><rect class="bar" x="390" y="0" width="6" height="60" rx="3" fill="#7dcfff" style="animation-delay: 0.07s; animation-duration: 1.61s" /></svg>