<svg width="400" height="60" viewBox="0 0 400 60" fill="none" xmlns="http://www.w3.org/2000/svg">
    <style>
        .bar {
            transform-box: fill-box;
            transform-origin: bottom;
            animation: wave 1.5s ease-in-out infinite;
        }
        @keyframes wave {
            0%, 100% { transform: scaleY(0.3); }
            50% { transform: scaleY(1); }
        }
    </style>
    <rect class="bar" x="0" y="0" width="6" height="60" rx="3" fill="#7dcfff" style="animation-delay: 1.33s; animation-duration: 1.57s" /><rect class="bar" x="10" y="0" width="6" height="60" rx="3" fill="#b4f9f8" style="animation-delay: 1.14s; animation-duration: 1.36s" /><rect class="bar" x="20" y="0" width="6" height="60" rx="3" fill="#7aa2f7" style="animation-delay: 1.01s; animation-duration: 0.89s" /><rect class="bar" x="30" y="0" width="6" height="60" rx="3" fill="#7aa2f7" style="animation-delay: 0.90s; animation-duration: 1.23s" /><rect class="bar" x="40" y="0" width="6" height="60" rx="3" fill="#b4f9f8" style="animation-delay: 0.62s; animation-duration: 1.55s" /><rect class="bar" x="50" y="0" width="6" height="60" rx="3" fill="#7aa2f7" style="animation-delay: 0.41s; animation-duration: 0.95s" /><rect class="bar" x="60" y="0" width="6" height="60" rx="3" fill="#b4f9f8" style="animation-delay: 1.20s; animation-duration: 0.87s" /><rect class="bar" x="70" y="0" width="6" height="60" rx="3" fill="#7aa2f7" style="animation-delay: 1.01s; animation-duration: 1.57s" /><rect class="bar" x="80" y="0" width="6" height="60" rx="3" fill="#7aa2f7" style="animation-delay: 0.20s; animation-duration: 1.08s" /><rect class="bar" x="90" y="0" width="6" height="60" rx="3" fill="#2ac3de" style="animation-delay: 0.70s; animation-duration: 1.13s" /><rect class="bar" x="100" y="0" width="6" height="60" rx="3" fill="#bb9af7" style="animation-delay: 1.10s; animation-duration: 1.56s" /><rect class="bar" x="110" y="0" width="6" height="60" rx="3" fill="#bb9af7" style="animation-delay: 1.23s; animation-duration: 1.61s" /><rect class="bar" x="120" y="0" width="6" height="60" rx="3" fill="#b4f9f8" style="animation-delay: 0.41s; animation-duration: 1.74s" /><rect class="bar" x="130" y="0" width="6" height="60" rx="3" fill="#b4f9f8" style="animation-delay: 0.29s; animation-duration: 1.09s" /><rect class="bar" x="140" y="0" width="6" height="60" rx="3" fill="#bb9af7" style="animation-delay: 0.86s; animation-duration: 1.14s" /><rect class="bar" x="150" y="0" width="6" height="60" rx="3" fill="#b4f9f8" style="animation-delay: 0.63s; animation-duration: 1.65s" /><rect class="bar" x="160" y="0" width="6" height="60" rx="3" fill="#b4f9f8" style="animation-delay: 1.28s; animation-duration: 0.96s" /><rect class="bar" x="170" y="0" width="6" height="60" rx="3" fill="#bb9af7" style="animation-delay: 0.36s; animation-duration: 1.07s" /><rect class="bar" x="180" y="0" width="6" height="60" rx="3" fill="#7aa2f7" style="animation-delay: 0.91s; animation-duration: 1.05s" /><rect class="bar" x="190" y="0" width="6" height="60" rx="3" fill="#7aa2f7" style="animation-delay: 1.26s; animation-duration: 1.33s" /><rect class="bar" x="200" y="0" width="6" height="60" rx="3" fill="#2ac3de" style="animation-delay: 1.37s; animation-duration: 1.22s" /><rect class="bar" x="210" y="0" width="6" height="60" rx="3" fill="#bb9af7" style="animation-delay: 0.81s; animation-duration: 0.99s" /><rect class="bar" x="220" y="0" width="6" height="60" rx="3" fill="#bb9af7" style="animation-delay: 0.35s; animation-duration: 0.89s" /><rect class="bar" x="230" y="0" width="6" height="60" rx="3" fill="#7dcfff" style="animation-delay: 0.47s; animation-duration: 1.70s" /><rect class="bar" x="240" y="0" width="6" height="60" rx="3" fill="#7dcfff" style="animation-delay: 1.24s; animation-duration: 1.05s" /><rect class="bar" x="250" y="0" width="6" height="60" rx="3" fill="#7aa2f7" style="animation-delay: 1.49s; animation-duration: 1.45s" /><rect class="bar" x="260" y="0" width="6" height="60" rx="3" fill="#b4f9f8" style="animation-delay: 0.56s; animation-duration: 1.47s" /><rect class="bar" x="270" y="0" width="6" height="60" rx="3" fill="#7aa2f7" style="animation-delay: 0.48s; animation-duration: 1.02s" /><rect class="bar" x="280" y="0" width="6" height="60" rx="3" fill="#b4f9f8" style="animation-delay: 0.66s; animation-duration: 0.85s" /><rect class="bar" x="290" y="0" width="6" height="60" rx="3" fill="#bb9af7" style="animation-delay: 0.59s; animation-duration: 1.17s" /><rect class="bar" x="300" y="0" width="6" height="60" rx="3" fill="#7dcfff" style="animation-delay: 1.25s; animation-duration: 0.93s" /><rect class="bar" x="310" y="0" width="6" height="60" rx="3" fill="#b4f9f8" style="animation-delay: 1.00s; animation-duration: 1.59s" /><rect class="bar" x="320" y="0" width="6" height="60" rx="3" fill="#7aa2f7" style="animation-delay: 0.27s; animation-duration: 1.08s" /><rect class="bar" x="330" y="0" width="6" height="60" rx="3" fill="#7dcfff" style="animation-delay: 1.23s; animation-duration: 1.22s" /><rect class="bar" x="340" y="0" width="6" height="60" rx="3" fill="#b4f9f8" style="animation-delay: 0.19s; animation-duration: 1.69s" /><rect class="bar" x="350" y="0" width="6" height="60" rx="3" fill="#b4f9f8" style="animation-delay: 1.37s; animation-duration: 1.45s" /><rect class="bar" x="360" y="0" width="6" height="60" rx="3" fill="#bb9af7" style="animation-delay: 0.99s; animation-duration: 1.17s" /><rect class="bar" x="370" y="0" width="6" height="60" rx="3" fill="#7aa2f7" style="animation-delay: 0.29s; animation-duration: 1.23s" /><rect class="bar" x="380" y="0" width="6" height="60" rx="3" fill="#2ac3de" style="animation-delay: 1.38s; animation-duration: 1.16s" /><rect class="bar" x="390" y="0" width="6" height="60" rx="3" fill="#7aa2f7" style="animation-delay: 1.40s; animation-duration: 1.70s" /></svg>