<svg width="400" height="60" viewBox="0 0 400 60" fill="none" xmlns="http://www.w3.org/2000/svg">
    <style>
        .bar {
            transform-box: fill-box;
            transform-origin: bottom;
            animation: wave 1.5s ease-in-out infinite;
        }
        @keyframes wave {
            0%, 100% { transform: scaleY(0.3); }
            50% { transform: scaleY(1); }
        }
    </style>
    <rect class="bar" x="0" y="0" width="6" height="60" rx="3" fill="#2ac3de" style="animation-delay: 0.63s; animation-duration: 1.30s" /><rect class="bar" x="10" y="0" width="6" height="60" rx="3" fill="#2ac3de" style="animation-delay: 0.61s; animation-duration: 1.76s" /><rect class="bar" x="20" y="0" width="6" height="60" rx="3" fill="#2ac3de" style="animation-delay: 0.31s; animation-duration: 1.14s" /><rect class="bar" x="30" y="0" width="6" height="60" rx="3" fill="#7aa2f7" style="animation-delay: 0.90s; animation-duration: 0.97s" /><rect class="bar" x="40" y="0" width="6" height="60" rx="3" fill="#2ac3de" style="animation-delay: 0.01s; animation-duration: 1.67s" /><rect class="bar" x="50" y="0" width="6" height="60" rx="3" fill="#7aa2f7" style="animation-delay: 1.01s; animation-duration: 1.15s" /><rect class="bar" x="60" y="0" width="6" height="60" rx="3" fill="#7aa2f7" style="animation-delay: 0.85s; animation-duration: 1.29s" /><rect class="bar" x="70" y="0" width="6" height="60" rx="3" fill="#7dcfff" style="animation-delay: 0.07s; animation-duration: 1.70s" /><rect class="bar" x="80" y="0" width="6" height="60" rx="3" fill="#2ac3de" style="animation-delay: 1.22s; animation-duration: 1.29s" /><rect class="bar" x="90" y="0" width="6" height="60" rx="3" fill="#2ac3de" style="animation-delay: 0.04s; animation-duration: 0.81s" /><rect class="bar" x="100" y="0" width="6" height="60" rx="3" fill="#7aa2f7" style="animation-delay: 0.66s; animation-duration: 1.73s" /><rect class="bar" x="110" y="0" width="6" height="60" rx="3" fill="#7aa2f7" style="animation-delay: 1.11s; animation-duration: 1.70s" /><rect class="bar" x="120" y="0" width="6" height="60" rx="3" fill="#7dcfff" style="animation-delay: 0.80s; animation-duration: 1.11s" /><rect class="bar" x="130" y="0" width="6" height="60" rx="3" fill="#7dcfff" style="animation-delay: 0.82s; animation-duration: 0.86s" /><rect class="bar" x="140" y="0" width="6" height="60" rx="3" fill="#2ac3de" style="animation-delay: 1.21s; animation-duration: 1.41s" /><rect class="bar" x="150" y="0" width="6" height="60" rx="3" fill="#2ac3de" style="animation-delay: 0.01s; animation-duration: 1.52s" /><rect class="bar" x="160" y="0" width="6" height="60" rx="3" fill="#b4f9f8" style="animation-delay: 0.57s; animation-duration: 0.98s" /><rect class="bar" x="170" y="0" width="6" height="60" rx="3" fill="#bb9af7" style="animation-delay: 0.53s; animation-duration: 1.29s" /><rect class="bar" x="180" y="0" width="6" height="60" rx="3" fill="#2ac3de" style="animation-delay: 1.29s; animation-duration: 1.50s" /><rect class="bar" x="190" y="0" width="6" height="60" rx="3" fill="#7dcfff" style="animation-delay: 1.40s; animation-duration: 1.39s" /><rect class="bar" x="200" y="0" width="6" height="60" rx="3" fill="#2ac3de" style="animation-delay: 0.16s; animation-duration: 1.23s" /><rect class="bar" x="210" y="0" width="6" height="60" rx="3" fill="#2ac3de" style="animation-delay: 0.88s; animation-duration: 0.94s" /><rect class="bar" x="220" y="0" width="6" height="60" rx="3" fill="#b4f9f8" style="animation-delay: 0.51s; animation-duration: 1.53s" /><rect class="bar" x="230" y="0" width="6" height="60" rx="3" fill="#bb9af7" style="animation-delay: 0.38s; animation-duration: 1.71s" /><rect class="bar" x="240" y="0" width="6" height="60" rx="3" fill="#2ac3de" style="animation-delay: 0.80s; animation-duration: 0.85s" /><rect class="bar" x="250" y="0" width="6" height="60" rx="3" fill="#7aa2f7" style="animation-delay: 1.25s; animation-duration: 1.03s" /><rect class="bar" x="260" y="0" width="6" height="60" rx="3" fill="#bb9af7" style="animation-delay: 0.25s; animation-duration: 1.36s" /><rect class="bar" x="270" y="0" width="6" height="60" rx="3" fill="#7aa2f7" style="animation-delay: 1.11s; animation-duration: 1.70s" /><rect class="bar" x="280" y="0" width="6" height="60" rx="3" fill="#2ac3de" style="animation-delay: 0.73s; animation-duration: 0.88s" /><rect class="bar" x="290" y="0" width="6" height="60" rx="3" fill="#7dcfff" style="animation-delay: 0.00s; animation-duration: 1.19s" /><rect class="bar" x="300" y="0" width="6" height="60" rx="3" fill="#7aa2f7" style="animation-delay: 0.09s; animation-duration: 1.26s" /><rect class="bar" x="310" y="0" width="6" height="60" rx="3" fill="#b4f9f8" style="animation-delay: 0.13s; animation-duration: 1.65s" /><rect class="bar" x="320" y="0" width="6" height="60" rx="3" fill="#7aa2f7" style="animation-delay: 0.24s; animation-duration: 1.25s" /><rect class="bar" x="330" y="0" width="6" height="60" rx="3" fill="#bb9af7" style="animation-delay: 0.00s; animation-duration: 1.44s" /><rect class="bar" x="340" y="0" width="6" height="60" rx="3" fill="#2ac3de" style="animation-delay: 1.28s; animation-duration: 1.24s" /><rect class="bar" x="350" y="0" width="6" height="60" rx="3" fill="#bb9af7" style="animation-delay: 1.27s; animation-duration: 1.46s" /><rect class="bar" x="360" y="0" width="6" height="60" rx="3" fill="#2ac3de" style="animation-delay: 0.68s; animation-duration: 1.80s" /><rect class="bar" x="370" y="0" width="6" height="60" rx="3" fill="#2ac3de" style="animation-delay: 1.20s; animation-duration: 1.33s" /><rect class="bar" x="380" y="0" width="6" height="60" rx="3" fill="#7dcfff" style="animation-delay: 0.09s; animation-duration: 1.39s" /><rect class="bar" x="390" y="0" width="6" height="60" rx="3" fill="#b4f9f8" style="animation-delay: 1.48s; animation-duration: 1.67s" /></svg>